<svg id="Calque_1" data-name="Calque 1" xmlns="http://www.w3.org/2000/svg" viewBox="0 0 370.16 105.46"><defs><style>.cls-1{fill:#26247b;}.cls-2{fill:#9a60a8;}.cls-3{fill:#ed3089;}</style></defs><polyline class="cls-1" points="9.68 104.53 0 104.53 0 19.44 9.68 19.44"/><path class="cls-1" d="M91,74.08c0-3.9-1.87-5.77-5-5.77-3.9,0-5,2.81-5,6.08v9.52c0,2.51,1.09,4.85,3.59,8.44l12.17,17c2.35,3.28,3.44,5.46,3.44,9.37V133.1c0,9.21-5.16,14.36-14.52,14.36-8,0-14.37-3.74-14.37-13.27V119.36H81v13.11c0,3.91.62,7.19,4.83,7.19,3.91,0,4.69-3.44,4.69-7.35V122c0-3.13-1.25-6.25-3.59-9.37L75.85,97.5c-2.81-3.74-4.53-6.71-4.53-11.39V75.18c0-9.37,6.41-14.68,15.15-14.68,10.3,0,13.58,7,13.58,12.18v14H91Z" transform="translate(-34.36 -42)"/><path class="cls-1" d="M150,75.49c0-5.16-1.71-7.18-5.62-7.18-5.46,0-6.24,3.28-6.24,8.27v8h-9.68v-10c0-8.74,7.33-14,16.24-14,9.37,0,15,3.91,15,14.84v71.19H150.6V142h-.31c-2.66,3.28-5.47,5.46-11.25,5.46-7.49,0-11.55-5.46-11.55-14V110.31c0-10.62,7.18-16.4,22.48-16.4Zm0,26.23c-5,0-12.79,2-12.79,9.21v19.36c0,6.09.93,9.37,6.08,9.37,4.22,0,6.71-3.13,6.71-8.74Z" transform="translate(-34.36 -42)"/><path class="cls-2" d="M209.41,119.05h9.69v12c0,13-7.81,16.39-16.08,16.39s-16.08-3.43-16.08-16.39V76.89c0-13,7.8-16.39,16.08-16.39s16.08,3.43,16.08,16.39v29.52H196.62v24.66c0,6.25,2.5,8.59,6.4,8.59s6.39-2.34,6.39-8.59Zm0-42.16c0-6.24-2.49-8.58-6.39-8.58s-6.4,2.34-6.4,8.58V97.66h12.79Z" transform="translate(-34.36 -42)"/><text x="-34.36" y="-42"/><polyline class="cls-3" points="222.68 104.53 213 104.53 213 0.93 222.68 0.93"/><polyline class="cls-3" points="257.05 104.53 247.37 104.53 247.37 0 257.05 0"/><path class="cls-3" d="M340,119.05h9.68v12c0,13-7.81,16.39-16.08,16.39s-16.08-3.43-16.08-16.39V76.89c0-13,7.81-16.39,16.08-16.39s16.08,3.43,16.08,16.39v29.52H327.17v24.66c0,6.25,2.5,8.59,6.4,8.59s6.4-2.34,6.4-8.59Zm0-42.16c0-6.24-2.5-8.58-6.4-8.58s-6.4,2.34-6.4,8.58V97.66H340Z" transform="translate(-34.36 -42)"/><text x="-34.36" y="-42"/><path class="cls-3" d="M395.31,74.08c0-3.9-1.87-5.77-5-5.77-3.9,0-5,2.81-5,6.08v9.52c0,2.51,1.09,4.85,3.59,8.44l12.18,17c2.34,3.28,3.43,5.46,3.43,9.37V133.1c0,9.21-5.16,14.36-14.52,14.36-8,0-14.37-3.74-14.37-13.27V119.36h9.69v13.11c0,3.91.62,7.19,4.83,7.19,3.91,0,4.69-3.44,4.69-7.35V122c0-3.13-1.25-6.25-3.59-9.37L380.16,97.5c-2.8-3.74-4.53-6.71-4.53-11.39V75.18c0-9.37,6.41-14.68,15.15-14.68,10.31,0,13.58,7,13.58,12.18v14h-9.05Z" transform="translate(-34.36 -42)"/></svg>